<?xml version="1.0" encoding="UTF-8" standalone="no"?>
<!-- Created with Inkscape (http://www.inkscape.org/) -->

<svg
   xmlns:dc="http://purl.org/dc/elements/1.1/"
   xmlns:cc="http://creativecommons.org/ns#"
   xmlns:rdf="http://www.w3.org/1999/02/22-rdf-syntax-ns#"
   xmlns:svg="http://www.w3.org/2000/svg"
   xmlns="http://www.w3.org/2000/svg"
   xmlns:sodipodi="http://sodipodi.sourceforge.net/DTD/sodipodi-0.dtd"
   xmlns:inkscape="http://www.inkscape.org/namespaces/inkscape"
   version="1.1"
   id="svg3680"
   xml:space="preserve"
   width="1333.3333"
   height="1333.3333"
   viewBox="0 0 1333.3333 1333.3333"
   sodipodi:docname="anamy final.svg"
   inkscape:version="0.92.1 r15371"><metadata
     id="metadata3686"><rdf:RDF><cc:Work
         rdf:about=""><dc:format>image/svg+xml</dc:format><dc:type
           rdf:resource="http://purl.org/dc/dcmitype/StillImage" /><dc:title></dc:title></cc:Work></rdf:RDF></metadata><defs
     id="defs3684"><clipPath
       clipPathUnits="userSpaceOnUse"
       id="clipPath3698"><path
         d="M 0,1000 H 1000 V 0 H 0 Z"
         id="path3696"
         inkscape:connector-curvature="0" /></clipPath><clipPath
       clipPathUnits="userSpaceOnUse"
       id="clipPath3738"><path
         d="M 0,1000 H 1000 V 0 H 0 Z"
         id="path3736"
         inkscape:connector-curvature="0" /></clipPath></defs><sodipodi:namedview
     pagecolor="#ffffff"
     bordercolor="#666666"
     borderopacity="1"
     objecttolerance="10"
     gridtolerance="10"
     guidetolerance="10"
     inkscape:pageopacity="0"
     inkscape:pageshadow="2"
     inkscape:window-width="1366"
     inkscape:window-height="706"
     id="namedview3682"
     showgrid="false"
     inkscape:zoom="0.39225002"
     inkscape:cx="285.53217"
     inkscape:cy="721.77616"
     inkscape:window-x="-8"
     inkscape:window-y="-8"
     inkscape:window-maximized="1"
     inkscape:current-layer="g3688" /><g
     id="g3688"
     inkscape:groupmode="layer"
     inkscape:label="anamy final"
     transform="matrix(1.3333333,0,0,-1.3333333,0,1333.3333)"><g
       id="g3692"
       transform="matrix(1,0,0,0.99365408,-126.19502,-26.463749)"><g
         id="g3694"
         clip-path="url(#clipPath3698)"><g
           id="g3700"
           transform="translate(508.4346,650.6515)" /><g
           id="g3704"
           transform="translate(608.6795,454.7268)"><path
             d="m 0,0 c -10.688,-0.253 -19.921,-6.085 -25.214,-14.621 4.545,-2.631 8.451,-6.178 11.821,-10.233 2.372,5.717 8.104,9.701 14.724,9.45 8.281,-0.312 14.712,-7.38 14.712,-15.667 v -33.72 c 0,-4.256 3.451,-7.707 7.707,-7.707 h 7.695 v 41.803 C 31.445,-13.519 17.267,0.409 0,0"
             style="fill:#00a6e6;fill-opacity:1;fill-rule:nonzero;stroke:none"
             id="path3706"
             inkscape:connector-curvature="0" /></g><g
           id="g3708"
           transform="translate(655.0901,454.7355)"><path
             d="m 0,0 h 7.694 c 4.257,0 7.707,-3.45 7.707,-7.707 v -33.72 c 0,-8.287 6.432,-15.354 14.713,-15.667 8.706,-0.329 15.893,6.658 15.893,15.291 V 0 h 15.401 v -41.226 c 0,-16.766 -13.201,-30.875 -29.963,-31.272 C 14.177,-72.906 0,-58.979 0,-41.803 Z"
             style="fill:#00a6e6;fill-opacity:1;fill-rule:nonzero;stroke:none"
             id="path3710"
             inkscape:connector-curvature="0" /></g><g
           id="g3712"
           transform="translate(320.4692,396.2014)"><path
             d="m 0,0 c -11.892,0 -21.566,9.675 -21.566,21.567 0,11.891 9.674,21.566 21.566,21.566 11.892,0 21.567,-9.675 21.567,-21.566 C 21.567,9.675 11.892,0 0,0 M -2.838,58.427 C -20.912,57.071 -35.504,42.481 -36.861,24.407 -38.487,2.746 -21.323,-15.401 0,-15.401 c 8.045,0 17.892,4.13 21.567,11.448 v -2.313 c 0,-4.256 3.45,-7.706 7.707,-7.706 h 7.694 v 35.539 c 0,21.322 -18.145,38.486 -39.806,36.86"
             style="fill:#00a6e6;fill-opacity:1;fill-rule:nonzero;stroke:none"
             id="path3714"
             inkscape:connector-curvature="0" /></g><g
           id="g3716"
           transform="translate(483.4537,396.2014)"><path
             d="m 0,0 c -11.892,0 -21.566,9.675 -21.566,21.567 0,11.891 9.674,21.566 21.566,21.566 11.892,0 21.567,-9.675 21.567,-21.566 C 21.567,9.675 11.892,0 0,0 M -2.838,58.427 C -20.912,57.071 -35.504,42.481 -36.861,24.407 -38.487,2.746 -21.323,-15.401 0,-15.401 c 8.045,0 17.892,4.13 21.567,11.448 v -2.313 c 0,-4.256 3.45,-7.706 7.707,-7.706 h 7.694 v 35.539 c 0,21.322 -18.145,38.486 -39.806,36.86"
             style="fill:#00a6e6;fill-opacity:1;fill-rule:nonzero;stroke:none"
             id="path3718"
             inkscape:connector-curvature="0" /></g><g
           id="g3720"
           transform="translate(701.0972,446.9549)"><path
             d="m 0,0 v -66.909 c 0,-8.436 -6.867,-15.281 -15.303,-15.283 h -8.255 c -5.051,0 -9.146,-4.095 -9.146,-9.146 v -6.268 h 17.401 v 0.003 c 0.247,0 0.492,-0.007 0.74,-0.001 16.762,0.397 29.964,14.505 29.964,31.272 V 0 Z"
             style="fill:#00a6e6;fill-opacity:1;fill-rule:nonzero;stroke:none"
             id="path3722"
             inkscape:connector-curvature="0" /></g><g
           id="g3724"
           transform="translate(408.4518,454.7304)"><path
             d="M 0,0 C -7.856,-0.713 -16.556,-6.162 -19.753,-14.264 V 0.005 h -15.401 v -35.165 -1.803 -35.538 h 15.401 v 35.538 2.416 c 0,10.45 8.414,18.972 18.823,19.148 10.713,0.181 13.109,-8.87 13.109,-19.585 v -29.811 c 0,-4.256 3.451,-7.706 7.707,-7.706 h 7.695 v 37.954 C 27.581,-15.696 18.703,1.697 0,0"
             style="fill:#00a6e6;fill-opacity:1;fill-rule:nonzero;stroke:none"
             id="path3726"
             inkscape:connector-curvature="0" /></g><g
           id="g3728"
           transform="translate(571.4362,454.7304)"><path
             d="M 0,0 C -7.856,-0.713 -16.556,-6.162 -19.753,-14.264 V 0.005 h -15.401 v -35.165 -1.803 -35.538 h 15.401 v 35.538 2.416 c 0,10.45 8.414,18.972 18.823,19.148 10.713,0.181 13.109,-8.87 13.109,-19.585 v -29.811 c 0,-4.256 3.451,-7.706 7.707,-7.706 h 7.695 v 37.954 C 27.581,-15.696 18.703,1.697 0,0"
             style="fill:#00a6e6;fill-opacity:1;fill-rule:nonzero;stroke:none"
             id="path3730"
             inkscape:connector-curvature="0" /></g></g></g><g
       id="g3732"
       transform="translate(396.27101,158.76299)"><g
         id="g3734"
         clip-path="url(#clipPath3738)"><g
           id="g3740"
           transform="translate(375.6997,298.8057)" /><g
           id="g3744"
           transform="translate(624.3004,691.1946)" /><g
           id="g3748"
           transform="translate(513.6705,612.2294)" /></g></g></g></svg>