<?xml version="1.0" encoding="UTF-8" standalone="no"?>
<!-- Created with Inkscape (http://www.inkscape.org/) -->

<svg
   xmlns:dc="http://purl.org/dc/elements/1.1/"
   xmlns:cc="http://creativecommons.org/ns#"
   xmlns:rdf="http://www.w3.org/1999/02/22-rdf-syntax-ns#"
   xmlns:svg="http://www.w3.org/2000/svg"
   xmlns="http://www.w3.org/2000/svg"
   xmlns:sodipodi="http://sodipodi.sourceforge.net/DTD/sodipodi-0.dtd"
   xmlns:inkscape="http://www.inkscape.org/namespaces/inkscape"
   width="210mm"
   height="297mm"
   viewBox="0 0 210 297"
   version="1.1"
   id="svg3776"
   inkscape:version="0.92.1 r15371"
   sodipodi:docname="drawing.svg">
  <defs
     id="defs3770">
    <clipPath
       clipPathUnits="userSpaceOnUse"
       id="clipPath3738">
      <path
         d="M 0,1000 H 1000 V 0 H 0 Z"
         id="path3736"
         inkscape:connector-curvature="0" />
    </clipPath>
  </defs>
  <sodipodi:namedview
     id="base"
     pagecolor="#ffffff"
     bordercolor="#666666"
     borderopacity="1.0"
     inkscape:pageopacity="0.0"
     inkscape:pageshadow="2"
     inkscape:zoom="0.35"
     inkscape:cx="-84.285714"
     inkscape:cy="560"
     inkscape:document-units="mm"
     inkscape:current-layer="layer1"
     showgrid="false"
     inkscape:window-width="1366"
     inkscape:window-height="706"
     inkscape:window-x="-8"
     inkscape:window-y="-8"
     inkscape:window-maximized="1" />
  <metadata
     id="metadata3773">
    <rdf:RDF>
      <cc:Work
         rdf:about="">
        <dc:format>image/svg+xml</dc:format>
        <dc:type
           rdf:resource="http://purl.org/dc/dcmitype/StillImage" />
        <dc:title></dc:title>
      </cc:Work>
    </rdf:RDF>
  </metadata>
  <g
     inkscape:label="Layer 1"
     inkscape:groupmode="layer"
     id="layer1">
    <g
       id="g3732"
       transform="matrix(0.35277777,0.00375731,0,-0.35277777,-88.698303,271.18292)">
      <g
         id="g3734"
         clip-path="url(#clipPath3738)">
        <g
           id="g3740"
           transform="translate(375.6997,298.8057)">
          <path
             d="m 0,0 c -42.4,0 -76.895,34.494 -76.895,76.894 v 248.601 c 0,42.4 34.495,76.894 76.895,76.894 h 248.601 c 42.399,0 76.894,-34.494 76.894,-76.894 V 76.894 C 325.495,34.494 291,0 248.601,0 Z"
             style="fill:#ffffff;fill-opacity:1;fill-rule:nonzero;stroke:none"
             id="path3742"
             inkscape:connector-curvature="0" />
        </g>
        <g
           id="g3744"
           transform="translate(624.3004,691.1946)">
          <path
             d="m 0,0 h -248.601 c -36.944,0 -66.894,-29.95 -66.894,-66.894 v -248.601 c 0,-36.945 29.95,-66.894 66.894,-66.894 H 0 c 36.945,0 66.894,29.949 66.894,66.894 V -66.894 C 66.894,-29.95 36.945,0 0,0"
             style="fill:#50c6e8;fill-opacity:1;fill-rule:nonzero;stroke:none"
             id="path3746"
             inkscape:connector-curvature="0" />
        </g>
        <g
           id="g3748"
           transform="translate(513.6705,612.2294)">
          <path
             d="m 0,0 h -125.9 v -125.9 c 0,-54.433 44.127,-98.559 98.559,-98.559 h 72.778 v 121.198 c 0,27.691 -22.448,50.139 -50.139,50.139 h -68.076 v -68.076 c 0,-27.691 22.448,-50.139 50.139,-50.139 h 14.924 c 0,0 4.232,28.661 -14.924,28.661 -11.862,0 -21.479,9.616 -21.479,21.478 v 39.416 h 39.416 c 11.862,0 21.479,-9.617 21.479,-21.479 v -92.537 h -44.118 c -38.604,0 -69.898,31.294 -69.898,69.898 v 97.239 H 0 c 38.604,0 69.898,-31.294 69.898,-69.898 v -103.598 c 0,-12.223 9.326,-22.132 28.661,-22.132 v 125.73 C 98.559,-44.126 54.432,0 0,0"
             style="fill:#ffffff;fill-opacity:1;fill-rule:nonzero;stroke:none"
             id="path3750"
             inkscape:connector-curvature="0" />
        </g>
      </g>
    </g>
    <path
       d="m -187.94521,54.138084 -44.41472,-0.47304 v 44.41472 c 0,19.202746 15.56702,34.935216 34.76942,35.139736 l 25.67446,0.27345 V 90.736994 c 0,-9.76877 -7.91915,-17.77227 -17.68792,-17.87631 l -24.0157,-0.25578 v 24.0157 c 0,9.768756 7.91916,17.772256 17.68792,17.876306 l 5.26486,0.0561 c 0,0 1.49295,-10.09507 -5.26486,-10.16704 -4.18465,-0.0446 -7.57731,-3.47302 -7.57731,-7.657666 v -13.90508 l 13.90509,0.1481 c 4.18465,0.0446 7.57731,3.47337 7.57731,7.65802 v 32.644986 l -15.56385,-0.16576 c -13.61863,-0.14505 -24.65846,-11.30246 -24.65846,-24.921086 v -34.30376 l 34.30376,0.36536 c 13.61863,0.14504 24.65846,11.30245 24.65846,24.92109 v 36.547066 c 0,4.312 3.29001,7.84272 10.11096,7.91536 V 89.277864 c 0,-19.20276 -15.56702,-34.93523 -34.76942,-35.13975"
       style="fill:#14c7ff;fill-opacity:1;fill-rule:nonzero;stroke:none;stroke-width:0.35277775"
       id="path3750-8"
       inkscape:connector-curvature="0" />
    <path
       style="stroke-width:0.75595242;fill:#ff1300;fill-opacity:1"
       d="m 407.47537,95.280337 c -33.51048,-0.42245 -34.48981,-0.47698 -38.04672,-2.11858 -6.0182,-2.77755 -9.30781,-5.89553 -12.00875,-11.382197 l -2.48324,-5.04443 V 27.20462 -22.325903 l 2.06765,-3.92144 c 2.54767,-4.83188 6.46182,-8.718003 11.0653,-10.986083 4.48551,-2.20994 12.13533,-2.38993 64.73015,-1.52301 l 38.55357,0.63547 3.77976,1.83188 c 4.79361,2.32326 9.33567,6.849833 11.7353,11.695333 l 1.87184,3.779763 v 49.13691 c 0,46.62081 -0.0742,49.32937 -1.44949,52.89537 -1.90516,4.94004 -7.08911,10.384297 -11.99606,12.598427 -3.68636,1.66337 -4.89504,1.78227 -18.68243,1.83782 -8.10758,0.0327 -30.21918,-0.13572 -49.13688,-0.3742 z m 54.42855,-50.232234 c 0,-13.164513 -0.34775,-24.77701 -0.81929,-27.35866 -2.04287,-11.1845603 -9.51006,-20.8063133 -20.02112,-25.798003 -5.7767,-2.74334 -5.88566,-2.76234 -19.132,-3.33681 -7.32722,-0.31777 -19.38426,-0.59967 -26.79341,-0.62646 l -13.47119,-0.0487 0.285,25.891373 c 0.26985,24.51581 0.37433,26.13235 1.96647,30.42709 3.57201,9.635357 11.60123,17.886447 21.04403,21.625517 4.03254,1.59677 5.81746,1.76734 21.22277,2.02806 l 16.81993,0.28467 -0.005,-22.552457 c -0.002,-13.203053 -0.32809,-23.71975 -0.7859,-25.36818 -1.169,-4.20921 -5.17805,-8.95453 -9.40152,-11.1281203 -3.55925,-1.83201 -4.48071,-1.94505 -17.94639,-2.20166 l -14.1945,-0.2705 V 20.208883 c 0,9.990687 0.29278,14.423437 1.10464,16.72451 2.70949,7.67949 9.19801,12.178227 17.56462,12.178227 h 4.76524 v -3.436137 c 0,-4.03865 -2.47257,-7.14719 -5.68496,-7.14719 -5.37801,0 -7.16622,-3.381013 -7.16622,-13.549353 v -7.576807 l 7.37054,0.40596 c 9.94017,0.5475 10.59333,0.73554 12.30484,3.54257 1.35969,2.22999 1.48587,3.869617 1.48846,19.34056 l 0.003,16.904007 -10.77232,-0.31944 c -9.20951,-0.2731 -11.28077,-0.56568 -14.277,-2.01673 -5.60668,-2.71527 -9.42976,-6.497387 -12.14958,-12.019407 l -2.4886,-5.05257 -0.25326,-19.80326 -0.25325,-19.8032733 16.12826,0.33608 c 8.87054,0.18483997 18.1035,0.46799997 20.51769,0.62925997 8.61735,0.5756 15.98213,5.96843303 20.07682,14.70120333 1.9878,4.23936 1.99251,4.2946 2.19689,25.79311 0.11265,11.849547 0.37319,22.305737 0.57896,23.235967 0.20578,0.93023 1.22772,2.25061 2.27097,2.93417 2.01057,1.31737 6.38897,2.51783 7.33959,2.01234 0.31183,-0.16581 0.56697,-10.59437 0.56697,-23.174567 z"
       id="path3817"
       inkscape:connector-curvature="0" />
    <path
       d="m -191.72497,269.58452 -44.41472,-0.47305 v 44.41472 c 0,19.20275 15.56702,34.93523 34.76942,35.13974 l 25.67446,0.27345 v -42.75596 c 0,-9.76877 -7.91915,-17.77227 -17.68792,-17.87631 l -24.0157,-0.25578 v 24.0157 c 0,9.76877 7.91916,17.77227 17.68792,17.87631 l 5.26486,0.0561 c 0,0 1.49295,-10.09506 -5.26486,-10.16704 -4.18465,-0.0446 -7.57731,-3.47301 -7.57731,-7.65766 v -13.90509 l 13.90509,0.1481 c 4.18465,0.0446 7.57731,3.47337 7.57731,7.65802 v 32.645 l -15.56385,-0.16577 c -13.61863,-0.14505 -24.65846,-11.30246 -24.65846,-24.92109 v -34.30376 l 34.30376,0.36536 c 13.61863,0.14505 24.65846,11.30246 24.65846,24.92109 v 36.54707 c 0,4.312 3.29001,7.84272 10.11096,7.91537 v -44.35475 c 0,-19.20275 -15.56702,-34.93523 -34.76942,-35.13974"
       style="fill:#ffffff;fill-opacity:1;fill-rule:nonzero;stroke:none;stroke-width:0.35277775"
       id="path3750-1"
       inkscape:connector-curvature="0" />
  </g>
</svg>
